<svg xmlns="http://www.w3.org/2000/svg" width="10" height="18" viewBox="0 0 10 18">
  <defs>
    <style>
      .cls-1 {
        fill: #fff;
        fill-rule: evenodd;
      }
    </style>
  </defs>
  <path id="Forma_1" data-name="Forma 1" class="cls-1" d="M107.623,3934h-2.4a4.155,4.155,0,0,0-4.436,4.43v2.04H98.377a0.376,0.376,0,0,0-.377.37v2.96a0.377,0.377,0,0,0,.377.37h2.412v7.46a0.369,0.369,0,0,0,.377.37h3.146a0.369,0.369,0,0,0,.377-0.37v-7.46h2.82a0.376,0.376,0,0,0,.377-0.37v-2.96a0.359,0.359,0,0,0-.11-0.26,0.381,0.381,0,0,0-.267-0.11h-2.82v-1.73c0-.83.2-1.25,1.317-1.25h1.616a0.377,0.377,0,0,0,.377-0.37v-2.75A0.377,0.377,0,0,0,107.623,3934Z" transform="translate(-98 -3934)"/>
</svg>
