<svg xmlns="http://www.w3.org/2000/svg" width="172" height="29.91" viewBox="0 0 172 29.91">
  <defs>
    <style>
      .cls-1 {
        fill: #fff;
        fill-rule: evenodd;
      }
    </style>
  </defs>
  <path id="Фигура_1_копия" data-name="Фигура 1 копия" class="cls-1" d="M81.338,5942.69L63.28,5929.42a1.6,1.6,0,0,0-1.708-.13,1.7,1.7,0,0,0-.892,1.5l0,8.21H54.692a1.1,1.1,0,0,0,0,2.18h5.99v1.74H50.973a1.091,1.091,0,0,0,0,2.17h9.709v1.79H54.692a1.1,1.1,0,0,0,0,2.18h5.991l0,8.25a1.684,1.684,0,0,0,.892,1.5,1.551,1.551,0,0,0,.752.19,1.6,1.6,0,0,0,.956-0.31l18.058-13.25a1.7,1.7,0,0,0,.688-1.37A1.753,1.753,0,0,0,81.338,5942.69Zm-17.281,11.47v-5.1H67.31a1.1,1.1,0,0,0,0-2.18H64.048l-0.011-1.79H70.5a1.091,1.091,0,0,0,0-2.17H64.023l-0.011-1.74h3.3a1.1,1.1,0,0,0,0-2.18H64l-0.031-4.94,13.594,9.99Zm36.405-9.71a7.655,7.655,0,0,0-1.6-1.29,20.138,20.138,0,0,0-2.243-1.18c-0.344-.16-0.73-0.32-1.159-0.5a6.613,6.613,0,0,1-1.177-.61,3.892,3.892,0,0,1-.916-0.82,1.505,1.505,0,0,1-.337-0.99,1.945,1.945,0,0,1,.15-0.72,2.282,2.282,0,0,1,1.065-1.17,2.352,2.352,0,0,1,1.719-.05,5.419,5.419,0,0,1,.841.33,8.174,8.174,0,0,1,.751.43c0.243,0.17.459,0.32,0.626,0.43a1.317,1.317,0,0,0,.636.3,2.065,2.065,0,0,0,.742-0.02,1.963,1.963,0,0,0,.708-0.3,1.738,1.738,0,0,0,.586-0.6,1.766,1.766,0,0,0,.118-1.58,3.5,3.5,0,0,0-1.1-1.44,6.745,6.745,0,0,0-1.965-1.06,8.058,8.058,0,0,0-2.55-.45H95.162a7.725,7.725,0,0,0-2.235.33,6.708,6.708,0,0,0-2.141,1.09,5.563,5.563,0,0,0-1.537,1.85,5.575,5.575,0,0,0,1.179,6.7,8.063,8.063,0,0,0,1.864,1.25,22,22,0,0,0,2.258.95c0.274,0.1.583,0.23,0.919,0.39a4.234,4.234,0,0,1,.907.62,3.694,3.694,0,0,1,.7.85,2.075,2.075,0,0,1,.273,1.08,2.867,2.867,0,0,1-.231,1.18,2.547,2.547,0,0,1-.614.85,2.888,2.888,0,0,1-.895.53,3.514,3.514,0,0,1-2.219.02,5.553,5.553,0,0,1-1.06-.43,8.252,8.252,0,0,1-.963-0.59c-0.314-.22-0.613-0.43-0.9-0.63a1.7,1.7,0,0,0-1.214-.29,1.594,1.594,0,0,0-1.132.82,1.7,1.7,0,0,0-.292.94,2.61,2.61,0,0,0,.2,1.07,3.446,3.446,0,0,0,.69,1.05,4.415,4.415,0,0,0,1.249.92,12.444,12.444,0,0,0,1.986.81,6.793,6.793,0,0,0,2.13.33c0.119,0,.239-0.01.356-0.01a7.6,7.6,0,0,0,5.374-1.95,6.876,6.876,0,0,0,1.836-4.82,6.106,6.106,0,0,0-.254-2.01A4.468,4.468,0,0,0,100.462,5944.45Zm18.152-11.12a2,2,0,0,0-1.652.6,1.851,1.851,0,0,0-.458,1.19v10.74a13.1,13.1,0,0,1-.166,2.21,3.917,3.917,0,0,1-.595,1.57,2.761,2.761,0,0,1-1.153.95,4.721,4.721,0,0,1-1.907.34,4.543,4.543,0,0,1-1.947-.36,2.68,2.68,0,0,1-1.168-.98,4.288,4.288,0,0,1-.626-1.58,11.025,11.025,0,0,1-.193-2.15v-10.74a1.815,1.815,0,0,0-.5-1.24,2.122,2.122,0,0,0-1.613-.55,2.034,2.034,0,0,0-1.618.59,1.82,1.82,0,0,0-.492,1.2v12.54a6.671,6.671,0,0,0,.728,3.19,7.1,7.1,0,0,0,1.875,2.24,8.125,8.125,0,0,0,2.6,1.32,10.272,10.272,0,0,0,5.882,0,7.654,7.654,0,0,0,2.586-1.34,6.645,6.645,0,0,0,2.528-5.41v-12.54a1.814,1.814,0,0,0-.5-1.24A2.122,2.122,0,0,0,118.614,5933.33Zm14.847,12.37c0.025,0,.051-0.01.076-0.01l0.573-.12a5.662,5.662,0,0,0,3.166-1.86,6.12,6.12,0,0,0,1.186-4.04,7.882,7.882,0,0,0-.46-2.87,4.336,4.336,0,0,0-1.392-1.9,5.51,5.51,0,0,0-2.262-.99,14.382,14.382,0,0,0-3.02-.29h-4.285a8.425,8.425,0,0,0-1.246.08,1.756,1.756,0,0,0-.847.33,1.335,1.335,0,0,0-.448.72,4.277,4.277,0,0,0-.109,1.06v17.1a1.892,1.892,0,0,0,.458,1.19,1.953,1.953,0,0,0,1.6.59,2.212,2.212,0,0,0,1.635-.54,1.735,1.735,0,0,0,.532-1.24v-6.34l7.067,7.61a1.77,1.77,0,0,0,1.3.52,1.135,1.135,0,0,0,.183-0.01,2.316,2.316,0,0,0,1.531-.71,2.037,2.037,0,0,0,.617-1.54,2.263,2.263,0,0,0-.675-1.52Zm-4.847-3.63v-4.59h2.714a6.286,6.286,0,0,1,1.161.1,2.448,2.448,0,0,1,.928.34,1.634,1.634,0,0,1,.6.66,2.466,2.466,0,0,1,.225,1.12,2.145,2.145,0,0,1-.682,1.91,4.289,4.289,0,0,1-2.231.46h-2.714Zm24.927-8.45h-8.77a2.442,2.442,0,0,0-1.521.41,1.734,1.734,0,0,0-.561,1.46v17.74a1.381,1.381,0,0,0,.5,1,2.242,2.242,0,0,0,1.586.46,2.4,2.4,0,0,0,1.608-.45,1.384,1.384,0,0,0,.531-1.01v-7.65h5.751a2.132,2.132,0,0,0,1.482-.43,1.884,1.884,0,0,0,.486-1.44,2,2,0,0,0-.494-1.46,2.231,2.231,0,0,0-1.474-.47H146.91v-4.36h6.6a2.246,2.246,0,0,0,1.44-.42,1.736,1.736,0,0,0,.528-1.49,1.976,1.976,0,0,0-.532-1.46A2.1,2.1,0,0,0,153.541,5933.62Zm12.371,1.1a1.96,1.96,0,0,0-.7-0.97,2.624,2.624,0,0,0-2.848,0,1.943,1.943,0,0,0-.7.96l-5.846,17.45a1.784,1.784,0,0,0,.2,1.97,2.248,2.248,0,0,0,1.584.56,2.14,2.14,0,0,0,1.513-.49,3.114,3.114,0,0,0,.779-1.22l1.183-3.16h5.4l1.3,3.31a3.18,3.18,0,0,0,.715,1.1,1.9,1.9,0,0,0,1.379.47l0.111-.01a2.181,2.181,0,0,0,1.587-.58,1.764,1.764,0,0,0,.253-1.9Zm-3.951,11.27,1.824-6.01,1.825,6.01h-3.649Zm28.071,3.31a1.56,1.56,0,0,0-1.662.23c-0.245.2-.49,0.38-0.733,0.57a6.033,6.033,0,0,1-.785.48,4.781,4.781,0,0,1-1,.37,6.215,6.215,0,0,1-1.327.18h-0.132a5.157,5.157,0,0,1-2.437-.56,5.58,5.58,0,0,1-1.856-1.6,7.21,7.21,0,0,1-1.135-2.3,9.567,9.567,0,0,1-.385-2.7,10.277,10.277,0,0,1,.345-2.67,7.188,7.188,0,0,1,1.011-2.25,5.3,5.3,0,0,1,1.649-1.57,4.252,4.252,0,0,1,2.234-.58,4.581,4.581,0,0,1,1.894.34,9.471,9.471,0,0,1,1.368.73c0.4,0.27.772,0.49,1.1,0.67a1.357,1.357,0,0,0,1.209.04,1.933,1.933,0,0,0,.623-0.37,1.748,1.748,0,0,0,.375-0.43c0.04-.08.095-0.22,0.166-0.4a1.549,1.549,0,0,0,.058-0.77,2.446,2.446,0,0,0-.6-1.17,5.635,5.635,0,0,0-1.4-1.19,8.918,8.918,0,0,0-4.708-1.31,9.546,9.546,0,0,0-3.75.75,8.611,8.611,0,0,0-3.015,2.16,10.314,10.314,0,0,0-2.012,3.43,13.779,13.779,0,0,0-.769,4.59,12.8,12.8,0,0,0,.726,4.61,9.975,9.975,0,0,0,2.131,3.48,9.1,9.1,0,0,0,3.258,2.18,11.035,11.035,0,0,0,4.055.74,8.38,8.38,0,0,0,2.738-.42,8.245,8.245,0,0,0,2.064-1,5.729,5.729,0,0,0,1.339-1.22,2.653,2.653,0,0,0,.564-1.08,1.965,1.965,0,0,0-.2-1.11A1.8,1.8,0,0,0,190.032,5949.3Zm15.214,1.31h-6.6v-5.03h6.319a2.132,2.132,0,0,0,1.482-.43,1.884,1.884,0,0,0,.486-1.44,1.984,1.984,0,0,0-.479-1.46,2.064,2.064,0,0,0-1.489-.47h-6.319v-4.36h6.6a2.249,2.249,0,0,0,1.441-.42,1.742,1.742,0,0,0,.528-1.49,1.984,1.984,0,0,0-.532-1.46,2.1,2.1,0,0,0-1.408-.43h-8.769a2.447,2.447,0,0,0-1.522.41,1.734,1.734,0,0,0-.56,1.46v17.05a1.673,1.673,0,0,0,.6,1.48,2.521,2.521,0,0,0,1.483.38h8.74a2.785,2.785,0,0,0,1.692-.4,1.773,1.773,0,0,0,.561-1.49,1.8,1.8,0,0,0-.561-1.5A2.785,2.785,0,0,0,205.246,5950.61Zm14.53-16.93h-2.838a1.189,1.189,0,0,0-1.057.53,2.986,2.986,0,0,0-.315,1.6,3.5,3.5,0,0,0,.235,1.59,1.018,1.018,0,0,0,.967.48h1.125v15.41c0,0.64.356,1.4,2.054,1.4s2.053-.76,2.053-1.4v-17.83C222,5934.65,221.614,5933.68,219.776,5933.68Z" transform="translate(-50 -5929.09)"/>
</svg>
