<svg xmlns="http://www.w3.org/2000/svg" width="17" height="17" viewBox="0 0 17 17">
  <defs>
    <style>
      .cls-1 {
        fill: #fff;
        fill-rule: evenodd;
      }
    </style>
  </defs>
  <path class="cls-1" d="M220.023,3938.07a1.071,1.071,0,0,1-1.071,1.07h-1.019a1.071,1.071,0,0,1-1.072-1.07v-1.02a1.071,1.071,0,0,1,1.072-1.07h1.019a1.072,1.072,0,0,1,1.072,1.07v1.02h0Zm0,9.88a1.134,1.134,0,0,1-1.143,1.07H208.161a1.173,1.173,0,0,1-1.184-1.07v-5.36a1.182,1.182,0,0,1,1.184-1.08h0.606c0.042,0,.082.01,0.119,0.01a0.463,0.463,0,0,1,.387.42,0.528,0.528,0,0,1,0,.11c0,0.02.056,0.05,0.053,0.07a4.114,4.114,0,0,0,.027.47h0a4.233,4.233,0,0,0,4.151,4.28c-0.026,0-.081.01-0.107,0.01,0.026,0,.037-0.01.064-0.01s0.045,0.01.071,0.01a4.285,4.285,0,0,0,4.284-4.29,4.124,4.124,0,0,0-.033-0.47c0-.02,0-0.05,0-0.07a0.535,0.535,0,0,1,0-.11,0.462,0.462,0,0,1,.386-0.42c0.038,0,.077-0.01.119-0.01h0.606a1.143,1.143,0,0,1,1.143,1.08v5.36h0ZM219.856,3934H207.144a2.143,2.143,0,0,0-2.144,2.14v12.72a2.143,2.143,0,0,0,2.144,2.14h12.712a2.143,2.143,0,0,0,2.144-2.14v-12.72a2.143,2.143,0,0,0-2.144-2.14m-6.339,6.04a2.526,2.526,0,1,1-2.582,2.53A2.554,2.554,0,0,1,213.517,3940.04Z" transform="translate(-205 -3934)"/>
</svg>
