<svg xmlns="http://www.w3.org/2000/svg" width="23.031" height="23.56" viewBox="0 0 23.031 23.56">
  <defs>
    <style>
      .cls-1 {
        fill: #fff;
        fill-rule: evenodd;
      }
    </style>
  </defs>
  <path class="cls-1" d="M446.321,6240.26a1.474,1.474,0,0,1-1.453,1.49h-1.381a1.474,1.474,0,0,1-1.454-1.49v-1.41a1.474,1.474,0,0,1,1.454-1.49h1.381a1.474,1.474,0,0,1,1.453,1.49v1.41h0Zm0,13.7a1.558,1.558,0,0,1-1.55,1.49H430.24a1.609,1.609,0,0,1-1.606-1.49v-7.43a1.609,1.609,0,0,1,1.606-1.49h0.822a0.834,0.834,0,0,1,.161.01,0.625,0.625,0,0,1,.524.58,0.685,0.685,0,0,1,0,.15c0,0.03.076,0.07,0.072,0.1a5.9,5.9,0,0,0,.036.65h0a5.814,5.814,0,0,0,5.627,5.94h0.039a5.861,5.861,0,0,0,5.762-6.59c0-.03,0-0.07-0.007-0.1a0.686,0.686,0,0,1-.006-0.15,0.623,0.623,0,0,1,.523-0.58,0.845,0.845,0,0,1,.162-0.01h0.821a1.558,1.558,0,0,1,1.55,1.49v7.43h0Zm-0.227-19.34H428.861a2.947,2.947,0,0,0-2.906,2.98v17.62a2.939,2.939,0,0,0,2.906,2.97h17.233a2.939,2.939,0,0,0,2.906-2.97V6237.6a2.947,2.947,0,0,0-2.906-2.98M437.5,6243a3.5,3.5,0,1,1-3.5,3.5A3.5,3.5,0,0,1,437.5,6243Z" transform="translate(-425.969 -6234.63)"/>
</svg>
