<svg xmlns="http://www.w3.org/2000/svg" width="137" height="23.938" viewBox="0 0 137 23.938">
  <defs>
    <style>
      .cls-1 {
        fill: #fff;
        fill-rule: evenodd;
      }
    </style>
  </defs>
  <path id="Фигура_1" data-name="Фигура 1" class="cls-1" d="M116.961,49.953L102.577,39.335a1.269,1.269,0,0,0-1.36-.1,1.347,1.347,0,0,0-.71,1.2V47h-4.77a0.875,0.875,0,0,0,0,1.739h4.77v1.39H92.775a0.875,0.875,0,0,0,0,1.739h7.734v1.436H95.738a0.875,0.875,0,0,0,0,1.739h4.773v6.6a1.355,1.355,0,0,0,.71,1.2,1.259,1.259,0,0,0,.6.15,1.274,1.274,0,0,0,.762-0.252l14.383-10.6a1.362,1.362,0,0,0,.548-1.093A1.4,1.4,0,0,0,116.961,49.953ZM103.2,59.129V55.047h2.592a0.875,0.875,0,0,0,0-1.739h-2.6l-0.009-1.436h5.147a0.875,0.875,0,0,0,0-1.739h-5.158l-0.008-1.39h2.627a0.875,0.875,0,0,0,0-1.739H103.15l-0.025-3.957,10.828,7.991Zm29-7.767a6.043,6.043,0,0,0-1.276-1.036,16.182,16.182,0,0,0-1.787-.942q-0.411-.187-0.923-0.4a5.651,5.651,0,0,1-.938-0.493,3.063,3.063,0,0,1-.729-0.651,1.212,1.212,0,0,1-.269-0.791,1.56,1.56,0,0,1,.12-0.579,1.851,1.851,0,0,1,.334-0.54,1.754,1.754,0,0,1,.515-0.393,1.878,1.878,0,0,1,1.369-.044,4.618,4.618,0,0,1,.67.266,5.313,5.313,0,0,1,.6.346c0.194,0.13.365,0.249,0.5,0.343a1.041,1.041,0,0,0,.507.235,1.463,1.463,0,0,0,.591-0.013,1.765,1.765,0,0,0,.564-0.237,1.477,1.477,0,0,0,.466-0.481,1.427,1.427,0,0,0,.094-1.269,2.764,2.764,0,0,0-.879-1.148,5.33,5.33,0,0,0-1.565-.848,6.413,6.413,0,0,0-2.031-.36l-0.15,0a6.1,6.1,0,0,0-1.78.266,5.313,5.313,0,0,0-1.706.87,4.484,4.484,0,0,0-.285,6.84,6.349,6.349,0,0,0,1.485,1,18.2,18.2,0,0,0,1.8.765,6.174,6.174,0,0,1,.731.315,3.281,3.281,0,0,1,.723.491,2.915,2.915,0,0,1,.557.681,1.664,1.664,0,0,1,.218.862,2.289,2.289,0,0,1-.184.942,2,2,0,0,1-.489.682,2.222,2.222,0,0,1-.713.424,2.814,2.814,0,0,1-1.768.019,4.684,4.684,0,0,1-.844-0.345,6.623,6.623,0,0,1-.767-0.473q-0.375-.268-0.718-0.5a1.375,1.375,0,0,0-.967-0.23,1.268,1.268,0,0,0-.9.657,1.347,1.347,0,0,0-.232.748,2.109,2.109,0,0,0,.163.856,2.8,2.8,0,0,0,.55.844,3.491,3.491,0,0,0,.995.729,9.924,9.924,0,0,0,1.582.653,5.477,5.477,0,0,0,1.7.26c0.095,0,.191,0,0.284-0.006a6.013,6.013,0,0,0,4.28-1.562,5.5,5.5,0,0,0,1.463-3.852,4.87,4.87,0,0,0-.2-1.607A3.468,3.468,0,0,0,132.193,51.362Zm14.459-8.895a1.6,1.6,0,0,0-1.316.474,1.509,1.509,0,0,0-.365.951v8.594a10.61,10.61,0,0,1-.132,1.774,3.135,3.135,0,0,1-.474,1.248,2.2,2.2,0,0,1-.918.763,4.4,4.4,0,0,1-3.07-.011,2.24,2.24,0,0,1-.931-0.785,3.49,3.49,0,0,1-.5-1.267,8.84,8.84,0,0,1-.154-1.721V43.893a1.429,1.429,0,0,0-.4-0.985,1.672,1.672,0,0,0-1.285-.44,1.618,1.618,0,0,0-1.289.469,1.461,1.461,0,0,0-.392.956V53.927a5.353,5.353,0,0,0,.58,2.555,5.583,5.583,0,0,0,1.493,1.787,6.345,6.345,0,0,0,2.069,1.057,8.118,8.118,0,0,0,4.685,0,6.094,6.094,0,0,0,2.06-1.071,5.331,5.331,0,0,0,2.014-4.329V43.893a1.429,1.429,0,0,0-.4-0.985A1.672,1.672,0,0,0,146.652,42.468Zm11.825,9.9,0.061-.012L159,52.257a4.506,4.506,0,0,0,2.521-1.487,4.929,4.929,0,0,0,.945-3.231,6.358,6.358,0,0,0-.366-2.3,3.513,3.513,0,0,0-1.109-1.521,4.431,4.431,0,0,0-1.8-.794,11.59,11.59,0,0,0-2.405-.226h-3.414a6.752,6.752,0,0,0-.992.061,1.411,1.411,0,0,0-.675.264,1.066,1.066,0,0,0-.356.579,3.339,3.339,0,0,0-.087.846V58.13a1.506,1.506,0,0,0,.365.951,1.542,1.542,0,0,0,1.271.474,1.752,1.752,0,0,0,1.3-.435,1.389,1.389,0,0,0,.424-0.99V53.054l5.629,6.089a1.39,1.39,0,0,0,1.037.417c0.047,0,.095,0,0.145-0.005a1.848,1.848,0,0,0,1.219-.574,1.626,1.626,0,0,0,.491-1.23,1.8,1.8,0,0,0-.537-1.215Zm-3.86-2.9V45.782h2.162a5.4,5.4,0,0,1,.925.078,2.061,2.061,0,0,1,.739.273,1.333,1.333,0,0,1,.477.532,1.964,1.964,0,0,1,.179.9,1.7,1.7,0,0,1-.543,1.521,3.4,3.4,0,0,1-1.777.374h-2.162ZM174.471,42.7h-6.985a1.94,1.94,0,0,0-1.212.322,1.4,1.4,0,0,0-.446,1.173V58.386a1.108,1.108,0,0,0,.4.8,1.768,1.768,0,0,0,1.263.372,1.864,1.864,0,0,0,1.281-.367,1.087,1.087,0,0,0,.423-0.8V52.263h4.58a1.69,1.69,0,0,0,1.181-.346,1.5,1.5,0,0,0,.387-1.149,1.594,1.594,0,0,0-.394-1.166,1.763,1.763,0,0,0-1.174-.375h-4.58V45.736h5.259A1.792,1.792,0,0,0,175.6,45.4a1.386,1.386,0,0,0,.42-1.189,1.57,1.57,0,0,0-.424-1.168A1.647,1.647,0,0,0,174.471,42.7Zm9.854,0.872a1.566,1.566,0,0,0-.56-0.77,2.089,2.089,0,0,0-2.268,0,1.55,1.55,0,0,0-.558.764l-4.656,13.959a1.434,1.434,0,0,0,.158,1.577,1.77,1.77,0,0,0,1.262.452,1.713,1.713,0,0,0,1.2-.393,2.479,2.479,0,0,0,.621-0.978l0.942-2.531h4.3L185.8,58.3a2.5,2.5,0,0,0,.569.877,1.5,1.5,0,0,0,1.1.376l0.088,0a1.743,1.743,0,0,0,1.264-.466,1.415,1.415,0,0,0,.2-1.518Zm-3.147,9.022,1.453-4.81,1.453,4.81h-2.906Zm22.359,2.644a1.232,1.232,0,0,0-1.324.188q-0.292.231-.584,0.45a4.382,4.382,0,0,1-.625.388,4.07,4.07,0,0,1-.795.3,4.806,4.806,0,0,1-1.058.144h-0.1a4.041,4.041,0,0,1-1.941-.452,4.457,4.457,0,0,1-1.479-1.275,5.819,5.819,0,0,1-.9-1.847,7.648,7.648,0,0,1-.307-2.155,8.286,8.286,0,0,1,.275-2.137,5.894,5.894,0,0,1,.805-1.8,4.235,4.235,0,0,1,1.314-1.249,3.387,3.387,0,0,1,1.78-.469,3.692,3.692,0,0,1,1.508.272,7.821,7.821,0,0,1,1.09.588c0.32,0.212.615,0.391,0.874,0.532a1.063,1.063,0,0,0,.963.035,1.55,1.55,0,0,0,.5-0.3,1.471,1.471,0,0,0,.3-0.345c0.032-.065.075-0.172,0.132-0.321A1.233,1.233,0,0,0,204,45.164a1.974,1.974,0,0,0-.476-0.934,4.581,4.581,0,0,0-1.114-.952,7.045,7.045,0,0,0-3.751-1.043,7.49,7.49,0,0,0-2.986.6,6.889,6.889,0,0,0-2.4,1.725,8.324,8.324,0,0,0-1.6,2.742,11.1,11.1,0,0,0-.613,3.674,10.325,10.325,0,0,0,.579,3.691,8.01,8.01,0,0,0,1.7,2.781,7.278,7.278,0,0,0,2.595,1.746,8.694,8.694,0,0,0,3.23.6,6.676,6.676,0,0,0,2.181-.336,6.865,6.865,0,0,0,1.644-.8,4.643,4.643,0,0,0,1.066-.976,2.111,2.111,0,0,0,.45-0.863,1.6,1.6,0,0,0-.156-0.889A1.448,1.448,0,0,0,203.537,55.238Zm12.119,1.049H210.4V52.263h5.033a1.689,1.689,0,0,0,1.18-.346A1.5,1.5,0,0,0,217,50.768a1.589,1.589,0,0,0-.381-1.167,1.637,1.637,0,0,0-1.186-.374H210.4V45.736h5.259A1.792,1.792,0,0,0,216.8,45.4a1.388,1.388,0,0,0,.421-1.189,1.574,1.574,0,0,0-.424-1.168,1.651,1.651,0,0,0-1.122-.343h-6.984a1.936,1.936,0,0,0-1.212.322,1.4,1.4,0,0,0-.447,1.173V57.828a1.357,1.357,0,0,0,.477,1.19,2.051,2.051,0,0,0,1.182.3h6.962A2.2,2.2,0,0,0,217,59a1.823,1.823,0,0,0,0-2.392A2.2,2.2,0,0,0,215.656,56.287Zm11.573-13.541h-2.261a0.945,0.945,0,0,0-.842.42,2.409,2.409,0,0,0-.251,1.283,2.823,2.823,0,0,0,.187,1.27,0.811,0.811,0,0,0,.771.387h0.9V58.432c0,0.512.284,1.123,1.635,1.123S229,58.945,229,58.432V44.172C229,43.522,228.693,42.746,227.229,42.746Z" transform="translate(-92 -39.063)"/>
</svg>
