<svg xmlns="http://www.w3.org/2000/svg" width="189" height="32.875" viewBox="0 0 189 32.875">
  <defs>
    <style>
      .cls-1 {
        fill: #fff;
        fill-rule: evenodd;
      }
    </style>
  </defs>
  <path id="Фигура_1" data-name="Фигура 1" class="cls-1" d="M54.435,67.06l-19.843-14.6a1.756,1.756,0,0,0-1.877-.139,1.853,1.853,0,0,0-.98,1.648l0,9.035H25.156a1.2,1.2,0,0,0,0,2.392h6.582v1.912H21.07a1.2,1.2,0,0,0,0,2.391H31.739v1.974H25.156a1.2,1.2,0,0,0,0,2.391H31.74l0,9.081a1.861,1.861,0,0,0,.98,1.648,1.74,1.74,0,0,0,.826.206,1.761,1.761,0,0,0,1.051-.345l19.843-14.57a1.87,1.87,0,0,0,.755-1.5A1.917,1.917,0,0,0,54.435,67.06ZM35.446,79.677V74.064h3.575a1.2,1.2,0,0,0,0-2.391H35.436L35.424,69.7h7.1a1.2,1.2,0,0,0,0-2.391H35.409L35.4,65.4h3.624a1.2,1.2,0,0,0,0-2.392H35.382l-0.034-5.441L50.286,68.551ZM75.449,69a8.35,8.35,0,0,0-1.761-1.425,22.249,22.249,0,0,0-2.465-1.295q-0.566-.258-1.273-0.547a7.838,7.838,0,0,1-1.293-.678,4.246,4.246,0,0,1-1.007-.9,1.666,1.666,0,0,1-.37-1.087,2.129,2.129,0,0,1,.165-0.8,2.564,2.564,0,0,1,.46-0.743,2.442,2.442,0,0,1,.71-0.54A2.6,2.6,0,0,1,70.5,60.93a6.417,6.417,0,0,1,.925.366,7.338,7.338,0,0,1,.825.476c0.267,0.179.5,0.343,0.687,0.472a1.439,1.439,0,0,0,.7.323,2.03,2.03,0,0,0,.816-0.018,2.43,2.43,0,0,0,.778-0.326,2.039,2.039,0,0,0,.644-0.661,1.96,1.96,0,0,0,.13-1.745,3.815,3.815,0,0,0-1.213-1.579,7.363,7.363,0,0,0-2.159-1.166,8.874,8.874,0,0,0-2.8-.5l-0.206,0a8.44,8.44,0,0,0-2.456.366,7.33,7.33,0,0,0-2.353,1.2,6.151,6.151,0,0,0-.393,9.4,8.75,8.75,0,0,0,2.048,1.372,25.361,25.361,0,0,0,2.482,1.052,8.5,8.5,0,0,1,1.009.433,4.532,4.532,0,0,1,1,.675,4.009,4.009,0,0,1,.769.937,2.278,2.278,0,0,1,.3,1.185,3.135,3.135,0,0,1-.254,1.3,2.745,2.745,0,0,1-.675.938,3.057,3.057,0,0,1-.983.583,3.891,3.891,0,0,1-2.439.026,6.475,6.475,0,0,1-1.165-.474,9.2,9.2,0,0,1-1.058-.65c-0.345-.246-0.674-0.476-0.991-0.693A1.9,1.9,0,0,0,63.13,73.9a1.749,1.749,0,0,0-1.243.9,1.836,1.836,0,0,0-.321,1.029,2.9,2.9,0,0,0,.224,1.177,3.865,3.865,0,0,0,.759,1.161,4.823,4.823,0,0,0,1.373,1,13.738,13.738,0,0,0,2.182.9,7.593,7.593,0,0,0,2.341.358c0.131,0,.262,0,0.392-0.009,2.622-.087,4.609-0.81,5.9-2.148a7.552,7.552,0,0,0,2.018-5.3,6.691,6.691,0,0,0-.28-2.209A4.786,4.786,0,0,0,75.449,69ZM95.4,56.768a2.22,2.22,0,0,0-1.816.652,2.071,2.071,0,0,0-.5,1.308V70.544a14.58,14.58,0,0,1-.182,2.439,4.308,4.308,0,0,1-.653,1.717,3.034,3.034,0,0,1-1.268,1.049,6.079,6.079,0,0,1-4.235-.015,3.079,3.079,0,0,1-1.284-1.079,4.793,4.793,0,0,1-.688-1.743,12.118,12.118,0,0,1-.212-2.367V58.728a1.961,1.961,0,0,0-.547-1.354,2.31,2.31,0,0,0-1.772-.605,2.237,2.237,0,0,0-1.778.644,2,2,0,0,0-.541,1.315v13.8a7.338,7.338,0,0,0,.8,3.513,7.674,7.674,0,0,0,2.06,2.458,8.732,8.732,0,0,0,2.854,1.454,11.229,11.229,0,0,0,6.463,0,8.4,8.4,0,0,0,2.842-1.473,7.314,7.314,0,0,0,2.778-5.952v-13.8a1.962,1.962,0,0,0-.546-1.354A2.31,2.31,0,0,0,95.4,56.768ZM111.71,70.374l0.083-.017,0.631-.129a6.221,6.221,0,0,0,3.478-2.044,6.762,6.762,0,0,0,1.3-4.442,8.719,8.719,0,0,0-.5-3.162,4.824,4.824,0,0,0-1.529-2.091,6.129,6.129,0,0,0-2.486-1.091,16.041,16.041,0,0,0-3.319-.31h-4.709a9.377,9.377,0,0,0-1.369.083,1.945,1.945,0,0,0-.93.363,1.457,1.457,0,0,0-.492.8,4.6,4.6,0,0,0-.12,1.164V78.3a2.065,2.065,0,0,0,.5,1.307,2.134,2.134,0,0,0,1.753.652,2.424,2.424,0,0,0,1.8-.6,1.906,1.906,0,0,0,.585-1.361v-6.98l7.765,8.373a1.924,1.924,0,0,0,1.431.573c0.065,0,.132,0,0.2-0.007a2.557,2.557,0,0,0,1.682-.79,2.235,2.235,0,0,0,.678-1.691,2.471,2.471,0,0,0-.742-1.671Zm-5.326-3.994V61.326h2.982a7.442,7.442,0,0,1,1.276.107,2.832,2.832,0,0,1,1.02.375,1.829,1.829,0,0,1,.658.732,2.7,2.7,0,0,1,.247,1.234,2.334,2.334,0,0,1-.75,2.092,4.694,4.694,0,0,1-2.451.515h-2.982Zm27.39-9.293h-9.636a2.683,2.683,0,0,0-1.672.443,1.918,1.918,0,0,0-.616,1.612V78.655a1.523,1.523,0,0,0,.545,1.1,2.448,2.448,0,0,0,1.743.512,2.576,2.576,0,0,0,1.766-.5,1.493,1.493,0,0,0,.584-1.1V70.236h6.319a2.336,2.336,0,0,0,1.629-.475,2.058,2.058,0,0,0,.534-1.58,2.19,2.19,0,0,0-.543-1.6,2.442,2.442,0,0,0-1.62-.515h-6.319v-4.8h7.255a2.474,2.474,0,0,0,1.582-.462,1.9,1.9,0,0,0,.581-1.635,2.158,2.158,0,0,0-.585-1.606A2.278,2.278,0,0,0,133.774,57.087Zm13.594,1.2a2.148,2.148,0,0,0-.773-1.059,2.89,2.89,0,0,0-3.128,0,2.135,2.135,0,0,0-.77,1.052l-6.424,19.194a1.967,1.967,0,0,0,.219,2.168,2.446,2.446,0,0,0,1.741.622,2.369,2.369,0,0,0,1.662-.54,3.408,3.408,0,0,0,.856-1.344l1.3-3.48h5.932l1.424,3.644a3.431,3.431,0,0,0,.785,1.206,2.077,2.077,0,0,0,1.516.517l0.121,0a2.409,2.409,0,0,0,1.744-.641,1.942,1.942,0,0,0,.279-2.087Zm-4.342,12.405,2.006-6.613,2,6.613h-4.01Zm30.847,3.636a1.7,1.7,0,0,0-1.827.259q-0.4.317-.8,0.618a6.084,6.084,0,0,1-.863.533,5.589,5.589,0,0,1-1.1.41,6.653,6.653,0,0,1-1.459.2h-0.145A5.589,5.589,0,0,1,165,75.724a6.143,6.143,0,0,1-2.04-1.753,7.981,7.981,0,0,1-1.247-2.539,10.5,10.5,0,0,1-.424-2.964,11.365,11.365,0,0,1,.379-2.939,8.079,8.079,0,0,1,1.112-2.479,5.832,5.832,0,0,1,1.811-1.718,4.688,4.688,0,0,1,2.456-.645,5.11,5.11,0,0,1,2.081.374,10.8,10.8,0,0,1,1.5.808c0.442,0.291.848,0.537,1.206,0.731a1.47,1.47,0,0,0,1.328.049,2.144,2.144,0,0,0,.685-0.407,2,2,0,0,0,.412-0.475c0.044-.09.1-0.237,0.183-0.441a1.706,1.706,0,0,0,.063-0.85,2.71,2.71,0,0,0-.657-1.285,6.3,6.3,0,0,0-1.536-1.309,9.74,9.74,0,0,0-5.175-1.434,10.37,10.37,0,0,0-4.12.821,9.516,9.516,0,0,0-3.313,2.372,11.441,11.441,0,0,0-2.211,3.771,15.2,15.2,0,0,0-.844,5.051,14.114,14.114,0,0,0,.8,5.075,11,11,0,0,0,2.341,3.824,10.025,10.025,0,0,0,3.58,2.4,12.038,12.038,0,0,0,4.456.818,9.246,9.246,0,0,0,3.009-.463,9.472,9.472,0,0,0,2.268-1.106,6.4,6.4,0,0,0,1.471-1.342,2.885,2.885,0,0,0,.62-1.186,2.182,2.182,0,0,0-.216-1.223A1.99,1.99,0,0,0,173.873,74.328Zm16.718,1.442h-7.255V70.236h6.943a2.338,2.338,0,0,0,1.629-.475,2.062,2.062,0,0,0,.534-1.58,2.181,2.181,0,0,0-.526-1.6,2.266,2.266,0,0,0-1.637-.515h-6.943v-4.8h7.255a2.474,2.474,0,0,0,1.582-.462,1.907,1.907,0,0,0,.581-1.635,2.158,2.158,0,0,0-.585-1.606,2.281,2.281,0,0,0-1.548-.472h-9.635a2.683,2.683,0,0,0-1.672.443,1.918,1.918,0,0,0-.616,1.612V77.889a1.861,1.861,0,0,0,.659,1.637,2.83,2.83,0,0,0,1.629.418h9.605a3.048,3.048,0,0,0,1.858-.443,2.5,2.5,0,0,0,0-3.288A3.048,3.048,0,0,0,190.591,75.77Zm15.966-18.619h-3.119a1.306,1.306,0,0,0-1.162.578,3.306,3.306,0,0,0-.346,1.765,3.858,3.858,0,0,0,.258,1.746,1.119,1.119,0,0,0,1.063.532h1.236V78.719c0,0.7.392,1.544,2.257,1.544S209,79.424,209,78.719V59.111C209,58.217,208.576,57.151,206.557,57.151Z" transform="translate(-20 -52.125)"/>
</svg>
