<svg xmlns="http://www.w3.org/2000/svg" width="18" height="15" viewBox="0 0 18 15">
  <defs>
    <style>
      .cls-1 {
        fill: #fff;
        fill-rule: evenodd;
      }
    </style>
  </defs>
  <path id="Forma_1" data-name="Forma 1" class="cls-1" d="M166.5,3935.28a7.4,7.4,0,0,1-2.347.92,3.632,3.632,0,0,0-2.7-1.2,3.745,3.745,0,0,0-3.693,3.79,3.929,3.929,0,0,0,.1.86,10.413,10.413,0,0,1-7.611-3.96,3.863,3.863,0,0,0,1.143,5.06,3.551,3.551,0,0,1-1.673-.48v0.05a3.753,3.753,0,0,0,2.962,3.71,3.473,3.473,0,0,1-.973.14,3.974,3.974,0,0,1-.695-0.07,3.714,3.714,0,0,0,3.449,2.63,7.265,7.265,0,0,1-4.586,1.62,8.526,8.526,0,0,1-.881-0.05,10.3,10.3,0,0,0,5.661,1.7c6.792,0,10.506-5.77,10.506-10.78l-0.012-.49a7.506,7.506,0,0,0,1.845-1.96,6.934,6.934,0,0,1-2.12.6A3.8,3.8,0,0,0,166.5,3935.28Z" transform="translate(-149 -3935)"/>
</svg>
